<?xml version="1.0" standalone="no"?>
<!DOCTYPE svg PUBLIC "-//W3C//DTD SVG 20010904//EN"
 "http://www.w3.org/TR/2001/REC-SVG-20010904/DTD/svg10.dtd">
<svg version="1.0" xmlns="http://www.w3.org/2000/svg"
 width="938.000000pt" height="938.000000pt" viewBox="0 0 938.000000 938.000000"
 preserveAspectRatio="xMidYMid meet">
<metadata>
Created by potrace 1.14, written by Peter Selinger 2001-2017
</metadata>
<g transform="translate(0.000000,938.000000) scale(0.100000,-0.100000)"
fill="#000000" stroke="none">
<path d="M6121 8313 c-1 -7 -11 -10 -28 -7 -24 5 -25 3 -12 -13 13 -16 13 -16
-11 0 -13 9 -29 17 -35 17 -5 0 -3 -5 5 -10 11 -7 5 -10 -23 -10 -24 0 -40 -5
-43 -15 -4 -8 -10 -15 -16 -15 -5 0 -6 6 -2 13 6 9 5 9 -8 0 -8 -7 -19 -9 -23
-5 -5 4 -5 1 -1 -5 5 -9 -1 -13 -18 -13 -14 0 -28 -5 -31 -11 -4 -6 -14 -8
-22 -5 -11 4 -13 2 -10 -9 4 -8 1 -17 -5 -21 -6 -4 -8 -3 -5 3 4 6 0 14 -9 17
-12 4 -15 2 -10 -9 3 -8 1 -15 -5 -15 -6 0 -7 -6 -3 -12 5 -8 0 -7 -11 2 -17
14 -18 13 -12 -4 6 -16 5 -17 -8 -6 -13 11 -14 10 -9 -4 5 -12 2 -17 -7 -16
-29 4 -40 0 -33 -12 6 -10 4 -10 -8 0 -17 13 -48 7 -48 -11 0 -6 -6 -3 -13 8
-11 14 -16 15 -22 5 -5 -9 -4 -11 3 -6 7 4 12 2 12 -3 0 -14 -17 -14 -25 -1
-5 8 -11 7 -21 -1 -11 -9 -14 -8 -15 7 0 11 -3 14 -6 7 -2 -7 -9 -13 -14 -13
-6 0 -8 3 -6 8 3 4 -6 7 -19 7 -13 0 -24 -4 -24 -10 0 -5 -4 -4 -9 4 -5 8 -6
21 -3 30 5 13 3 13 -12 -1 -16 -17 -19 -17 -46 3 -16 13 -33 18 -41 14 -7 -5
-10 -4 -6 2 7 12 -15 24 -47 28 -11 1 -22 7 -24 14 -3 9 -7 9 -18 0 -11 -9
-14 -9 -14 0 0 7 -8 11 -17 9 -11 -2 -17 2 -15 11 3 12 0 12 -11 2 -12 -9 -16
-9 -20 1 -4 11 -6 10 -6 0 -1 -8 -6 -10 -13 -5 -23 14 -41 12 -56 -5 -7 -9
-11 -12 -8 -5 4 6 2 14 -4 18 -5 3 -10 -1 -10 -9 0 -9 -5 -16 -11 -16 -5 0 -7
6 -3 13 6 9 5 9 -8 0 -8 -7 -19 -9 -23 -5 -5 4 -5 -1 -2 -11 6 -15 4 -16 -16
-6 -21 12 -21 11 -7 -6 14 -17 14 -18 -9 -6 -13 7 -21 9 -17 3 3 -5 -1 -12 -9
-16 -8 -3 -17 -1 -21 5 -4 6 -12 5 -22 -3 -12 -10 -14 -10 -8 0 5 9 -1 12 -23
10 -16 -1 -27 -6 -24 -12 4 -5 -1 -7 -9 -3 -9 3 -21 0 -28 -6 -10 -9 -11 -9
-5 3 8 13 7 13 -8 1 -10 -8 -20 -11 -23 -8 -4 3 -13 0 -21 -8 -17 -17 -37 -20
-27 -4 3 6 -5 4 -18 -5 -14 -9 -28 -13 -33 -9 -4 5 -6 3 -2 -2 3 -6 2 -17 -4
-25 -5 -9 -9 -10 -9 -4 0 7 -7 14 -14 17 -10 4 -13 1 -10 -7 3 -7 -3 -16 -13
-19 -10 -4 -34 -12 -54 -20 -36 -13 -63 -12 -54 3 3 5 -3 7 -12 5 -10 -1 -26
2 -35 6 -10 6 -19 5 -23 -1 -5 -8 -11 -8 -19 -1 -7 6 -29 9 -49 8 -21 -2 -37
1 -37 7 0 6 -7 2 -15 -8 -8 -11 -15 -15 -15 -10 0 6 -7 11 -15 11 -8 0 -11 -5
-8 -10 3 -6 -7 -8 -25 -5 -17 2 -29 1 -26 -3 2 -4 0 -10 -6 -14 -5 -3 -10 -1
-10 6 0 7 -7 4 -16 -7 -8 -10 -12 -13 -8 -5 5 10 1 11 -16 6 -17 -5 -21 -4
-15 5 6 10 4 11 -6 4 -17 -11 -79 -13 -79 -2 0 4 -7 8 -15 8 -8 0 -15 -5 -15
-12 0 -6 -7 -3 -15 8 -13 18 -14 18 -15 1 0 -10 -5 -15 -10 -12 -6 4 -8 9 -6
13 2 4 -9 7 -24 7 -24 0 -26 -2 -17 -15 9 -11 7 -11 -8 1 -12 10 -32 15 -47
12 -17 -2 -28 1 -28 8 0 8 -4 9 -13 0 -8 -6 -17 -7 -23 -1 -11 11 -106 21 -99
11 2 -4 -2 -8 -10 -8 -8 0 -12 3 -10 7 2 4 -2 7 -10 7 -8 0 -12 -4 -9 -9 5 -8
-5 -11 -39 -11 -12 0 -14 -3 -7 -12 7 -8 5 -12 -5 -13 -8 -1 -22 -3 -30 -4
-11 -1 -12 -5 -3 -15 8 -10 7 -12 -5 -8 -8 4 -18 1 -22 -4 -3 -6 -12 -8 -18
-4 -7 4 -5 -2 3 -12 8 -10 10 -16 4 -12 -7 4 -14 0 -18 -8 -3 -8 -11 -12 -19
-9 -8 3 -20 -3 -28 -13 -13 -16 -12 -17 3 -5 13 11 18 11 24 0 4 -7 4 -10 -1
-6 -4 4 -14 3 -21 -3 -8 -7 -14 -7 -19 0 -6 10 -60 -20 -76 -42 -3 -5 -9 -2
-12 7 -5 13 -10 13 -32 2 -15 -8 -34 -13 -43 -12 -9 2 -23 -4 -30 -13 -8 -9
-11 -10 -7 -3 7 13 -7 17 -19 5 -4 -5 -20 -9 -34 -9 -15 -1 -29 -3 -32 -4 -7
-4 -23 -7 -38 -9 -8 -1 -10 -6 -6 -13 6 -10 4 -10 -7 -2 -19 15 -58 11 -70 -7
-5 -8 -9 -10 -9 -5 0 5 -7 3 -15 -4 -8 -7 -15 -8 -15 -3 0 5 -7 10 -14 10 -8
0 -15 -3 -14 -6 2 -18 -4 -21 -22 -11 -16 9 -22 8 -26 -5 -5 -13 -9 -13 -22
-3 -12 10 -14 10 -8 1 5 -9 0 -13 -14 -13 -12 0 -18 -4 -15 -10 8 -13 -18 -8
-27 5 -4 6 -8 1 -8 -10 0 -15 -3 -17 -9 -7 -6 11 -10 10 -15 -4 -6 -16 -8 -16
-16 -4 -8 12 -10 12 -10 1 0 -8 -6 -11 -16 -7 -8 3 -13 2 -10 -3 8 -12 -20
-22 -42 -14 -9 3 -14 3 -10 -2 13 -14 -25 -35 -40 -22 -10 8 -12 7 -10 -4 2
-8 -3 -13 -11 -11 -8 2 -11 -3 -8 -12 4 -9 1 -18 -5 -22 -7 -4 -8 -3 -4 4 4 7
2 12 -3 12 -6 0 -11 -4 -11 -10 0 -5 -6 -7 -13 -4 -8 3 -14 -2 -14 -10 0 -8 4
-13 9 -10 15 9 8 -6 -11 -25 -11 -11 -23 -16 -27 -13 -5 4 -3 -1 4 -10 11 -14
10 -18 -5 -28 -16 -10 -16 -11 -1 -6 10 3 20 1 23 -5 4 -5 1 -8 -7 -7 -7 2
-12 -3 -10 -10 1 -8 -2 -11 -8 -7 -5 3 -10 -2 -10 -11 0 -10 -3 -14 -7 -11 -3
4 -12 -1 -20 -11 -8 -9 -12 -12 -9 -5 9 17 -25 9 -39 -10 -7 -9 -15 -14 -18
-10 -4 3 -7 -2 -8 -13 0 -10 -3 -14 -5 -7 -3 7 -12 9 -20 6 -7 -3 -11 -10 -7
-16 4 -7 0 -8 -11 -4 -13 5 -17 3 -13 -6 4 -10 -2 -13 -18 -11 -18 2 -22 -2
-17 -14 5 -15 4 -15 -14 -2 -10 8 -16 10 -12 6 4 -5 3 -15 -4 -23 -9 -11 -7
-12 8 -7 13 4 11 1 -6 -12 -14 -10 -28 -22 -31 -27 -3 -5 -9 -8 -13 -8 -3 0
-13 -2 -21 -5 -11 -5 -13 -10 -5 -19 8 -10 8 -15 -1 -21 -8 -4 -9 -3 -5 4 4 7
2 12 -3 12 -6 0 -11 -5 -11 -12 0 -6 -3 -8 -7 -5 -3 4 -12 -1 -20 -11 -8 -9
-12 -12 -9 -5 4 6 1 15 -5 19 -8 4 -9 3 -5 -4 4 -8 0 -12 -11 -12 -12 0 -14
-3 -6 -8 8 -5 7 -12 -4 -27 -13 -16 -15 -17 -10 -2 8 21 -8 23 -17 2 -3 -8
-12 -15 -19 -15 -8 0 -22 -9 -32 -20 -10 -11 -22 -17 -28 -13 -6 4 -7 1 -1 -8
12 -20 14 -40 3 -33 -5 3 -7 10 -3 15 3 6 -3 5 -15 -3 -12 -7 -21 -18 -21 -24
0 -6 -8 -18 -17 -25 -15 -12 -16 -12 -8 1 5 9 5 12 -1 7 -5 -5 -9 -12 -10 -15
0 -4 -5 -16 -9 -26 -8 -19 -9 -19 -16 0 -7 17 -8 16 -9 -6 -2 -14 -2 -29 -1
-34 1 -5 -6 -3 -15 5 -15 12 -17 12 -9 0 6 -11 4 -13 -10 -7 -16 6 -16 4 -4
-11 9 -11 10 -14 2 -9 -8 4 -13 2 -13 -4 0 -6 -4 -8 -10 -5 -5 3 -10 -2 -10
-12 0 -15 -2 -16 -10 -3 -8 13 -10 12 -10 -3 0 -10 -4 -15 -10 -12 -5 3 -10 0
-10 -8 0 -8 -8 -21 -17 -28 -10 -8 -14 -9 -10 -2 4 6 2 15 -4 19 -9 5 -10 -3
-6 -32 4 -23 3 -33 -2 -25 -7 11 -13 10 -31 -7 -16 -14 -18 -22 -9 -27 8 -5
10 -4 5 3 -4 7 -2 12 3 12 16 0 14 -8 -11 -43 -12 -17 -17 -28 -11 -24 6 4 14
0 17 -9 4 -10 2 -13 -6 -8 -8 5 -9 2 -5 -9 3 -9 1 -19 -5 -23 -7 -4 -8 -3 -4
4 5 8 1 10 -10 5 -11 -4 -13 -8 -6 -11 7 -2 10 -8 7 -13 -4 -5 0 -7 7 -6 7 2
9 2 5 -1 -4 -2 -2 -11 5 -20 10 -14 10 -15 -2 -4 -21 18 -35 15 -19 -5 12 -15
12 -16 -2 -11 -13 5 -16 2 -12 -13 3 -10 10 -16 16 -12 6 3 7 1 3 -6 -4 -6
-12 -9 -17 -6 -8 6 -13 -9 -10 -29 1 -5 -5 -4 -13 3 -13 11 -14 7 -12 -29 2
-26 0 -37 -5 -28 -5 7 -9 9 -9 3 0 -5 -5 -3 -11 5 -9 12 -10 11 -6 -7 3 -13 1
-23 -5 -23 -5 0 -6 -5 -2 -12 5 -8 2 -9 -11 -4 -15 5 -16 4 -6 -8 10 -12 8
-14 -11 -10 -13 2 -17 2 -10 -2 6 -3 12 -10 12 -15 0 -6 -5 -7 -12 -3 -8 5 -9
2 -4 -11 6 -16 4 -16 -11 -4 -10 7 -15 9 -11 5 4 -5 0 -15 -10 -23 -10 -9 -11
-11 -2 -7 13 7 13 5 1 -9 -12 -15 -11 -17 5 -18 11 0 14 -3 6 -6 -6 -2 -9 -10
-5 -16 4 -8 1 -8 -9 1 -13 10 -15 9 -10 -13 2 -14 9 -25 16 -25 6 0 5 -4 -3
-9 -13 -8 -13 -12 0 -28 13 -17 13 -17 -6 -3 -19 15 -19 15 -2 -12 10 -16 15
-28 11 -28 -4 0 0 -7 7 -17 13 -15 12 -15 -8 -4 -19 10 -22 9 -17 -4 4 -8 10
-15 16 -15 5 0 7 -4 4 -9 -4 -5 0 -12 6 -14 10 -4 10 -6 1 -6 -7 -1 -10 -8 -7
-16 4 -8 1 -15 -6 -15 -6 0 -8 -5 -4 -11 5 -8 9 -8 14 1 5 9 9 9 14 1 4 -6 3
-11 -3 -11 -6 0 -16 -10 -22 -22 -11 -21 -11 -22 5 -9 14 12 16 12 10 -3 -3
-9 -10 -16 -15 -16 -5 0 -9 -5 -9 -11 0 -5 5 -7 12 -3 7 5 8 3 4 -5 -5 -7 -14
-10 -20 -8 -15 6 -37 -27 -41 -60 -1 -13 -10 -30 -20 -37 -12 -9 -16 -19 -11
-31 5 -15 4 -16 -9 -5 -13 11 -16 11 -13 -1 2 -8 8 -17 13 -21 6 -4 2 -8 -8
-8 -15 0 -16 -3 -7 -20 6 -11 7 -20 3 -19 -18 3 -36 -1 -30 -8 4 -3 -1 -12
-11 -20 -9 -8 -11 -12 -5 -8 7 3 13 2 13 -3 0 -5 -9 -12 -20 -15 -14 -4 -18
-10 -13 -23 4 -10 2 -15 -3 -11 -6 3 -11 -4 -11 -16 -2 -17 0 -19 7 -7 6 9 10
10 10 3 0 -6 -4 -15 -10 -18 -15 -9 -12 -27 3 -19 9 5 9 4 1 -5 -6 -7 -20 -13
-32 -14 -11 0 -18 -5 -16 -9 3 -5 9 -6 14 -3 4 3 10 -1 13 -8 6 -15 -27 -59
-37 -49 -4 3 -4 -1 0 -11 3 -9 9 -15 13 -12 4 2 8 -2 8 -10 0 -8 -4 -12 -8
-10 -13 8 -18 -22 -6 -34 9 -10 9 -12 -3 -9 -9 2 -14 -4 -14 -14 1 -10 -1 -17
-5 -16 -18 2 -24 -3 -13 -10 10 -7 10 -15 2 -36 -5 -15 -14 -24 -20 -21 -6 4
-7 -1 -3 -11 5 -13 3 -15 -8 -9 -8 5 -5 -2 5 -14 20 -22 20 -22 0 -15 -17 7
-18 6 -4 -11 8 -10 10 -16 4 -12 -15 9 -26 -17 -13 -30 13 -13 -10 -65 -24
-56 -6 3 -8 -10 -5 -35 2 -22 0 -38 -4 -36 -3 2 -10 -1 -14 -7 -4 -8 -3 -9 4
-5 7 4 12 2 12 -4 0 -6 4 -9 8 -6 5 3 9 -1 9 -8 0 -8 -5 -12 -12 -10 -6 3 -11
-5 -11 -16 0 -11 3 -20 6 -20 8 0 5 -84 -4 -98 -7 -12 -1 -16 18 -13 5 1 6 -5
3 -14 -4 -9 -1 -15 8 -15 8 0 15 -5 15 -11 0 -5 -4 -7 -10 -4 -5 3 -10 1 -10
-4 0 -6 4 -11 10 -11 5 0 7 -6 4 -14 -3 -8 1 -20 9 -27 12 -12 12 -15 -1 -25
-17 -13 -8 -36 12 -28 7 3 17 -3 20 -13 6 -14 4 -15 -5 -6 -6 6 -18 9 -25 6
-20 -8 -17 -23 3 -17 15 5 15 3 -1 -10 -18 -15 -15 -21 9 -16 6 1 -1 -11 -15
-26 -14 -15 -20 -24 -14 -21 7 4 15 0 18 -9 4 -10 2 -13 -6 -8 -8 5 -9 2 -5
-9 3 -9 2 -19 -3 -22 -6 -4 -10 -12 -10 -18 0 -7 4 -6 10 3 8 12 10 11 10 -5
0 -12 -6 -27 -12 -34 -10 -11 -10 -13 -1 -7 8 5 13 1 13 -10 0 -10 3 -14 7
-11 11 11 41 -47 33 -63 -4 -8 -4 -24 0 -34 6 -17 7 -17 13 -3 3 8 2 18 -4 21
-5 2 -4 3 3 2 7 -2 12 -10 10 -20 -2 -9 2 -16 8 -16 6 0 8 -5 5 -10 -4 -6 -12
-7 -18 -3 -7 4 -6 0 2 -10 7 -9 18 -14 25 -10 6 4 5 -1 -3 -10 -11 -14 -11
-18 3 -23 9 -3 13 -10 10 -15 -3 -5 2 -6 12 -2 14 5 15 3 4 -17 -8 -15 -8 -20
-1 -16 6 4 11 3 11 -2 0 -5 10 -12 22 -15 17 -5 19 -9 9 -20 -9 -12 -8 -16 4
-21 11 -4 14 -2 10 7 -4 6 0 3 9 -7 8 -10 13 -23 9 -29 -3 -6 -1 -7 4 -4 6 4
13 0 17 -8 3 -8 12 -15 19 -15 8 0 20 -7 28 -16 10 -13 10 -17 -2 -25 -10 -8
-8 -9 9 -4 13 4 22 2 22 -4 0 -6 6 -11 13 -11 7 0 21 -10 31 -21 15 -18 15
-23 5 -30 -8 -5 -9 -9 -4 -9 6 0 17 6 24 13 9 7 11 7 8 1 -4 -7 4 -15 21 -19
15 -4 21 -10 14 -12 -8 -3 -10 -9 -4 -16 5 -7 12 -22 15 -35 4 -17 2 -21 -7
-15 -6 4 -3 0 7 -9 17 -16 17 -18 3 -18 -10 0 -14 -5 -11 -10 4 -6 12 -8 18
-4 7 3 5 0 -3 -8 -15 -13 -24 -52 -11 -43 4 2 8 -2 8 -10 0 -8 -4 -12 -9 -9
-4 3 -5 -2 -2 -10 3 -9 11 -13 17 -9 6 3 7 1 3 -6 -4 -6 -12 -9 -17 -6 -5 4
-17 1 -26 -5 -15 -10 -15 -11 -1 -6 25 7 29 -4 8 -27 -22 -23 -18 -39 8 -30
10 3 8 -1 -6 -12 -14 -10 -21 -23 -18 -32 4 -10 2 -13 -8 -10 -11 4 -13 1 -9
-10 4 -10 2 -14 -5 -9 -6 3 -13 2 -16 -3 -4 -5 -1 -13 5 -17 8 -5 9 -3 4 6 -6
9 -4 11 5 5 10 -6 9 -11 -6 -22 -16 -12 -17 -15 -4 -23 13 -9 13 -10 0 -10 -9
0 -11 -3 -5 -8 6 -4 11 -13 13 -21 3 -12 0 -12 -13 -1 -13 11 -15 10 -9 -4 3
-9 11 -16 16 -16 6 0 8 -10 5 -21 -4 -17 -3 -19 6 -10 14 14 30 14 21 -1 -4
-6 1 -17 10 -23 15 -12 15 -13 -1 -20 -17 -6 -17 -7 2 -22 17 -14 18 -15 2 -9
-15 5 -18 1 -16 -17 3 -30 -11 -58 -24 -50 -6 3 -7 1 -3 -6 4 -6 12 -9 17 -6
5 4 9 1 9 -4 0 -6 -6 -11 -14 -11 -8 0 -18 -5 -22 -12 -4 -6 -3 -8 3 -5 6 4
13 0 17 -8 3 -8 2 -14 -2 -14 -19 3 -25 -2 -12 -11 13 -9 13 -10 0 -10 -13 0
-13 -1 0 -10 12 -8 12 -10 1 -10 -11 0 -11 -3 0 -17 8 -9 9 -14 3 -10 -15 9
-25 -17 -17 -40 5 -16 4 -16 -8 -3 -8 8 -13 13 -12 11 2 -2 -2 -10 -8 -17 -7
-8 -6 -14 2 -20 8 -5 9 -3 4 6 -6 9 -4 11 4 6 9 -6 8 -13 -6 -29 -10 -11 -12
-17 -5 -13 15 9 15 5 2 -28 -6 -17 -6 -27 1 -32 6 -4 5 -11 -3 -22 -7 -9 -8
-13 -2 -9 7 4 14 -2 17 -13 3 -11 1 -18 -3 -15 -5 3 -11 1 -15 -5 -3 -5 1 -10
10 -10 9 0 13 -5 9 -11 -4 -8 1 -9 17 -4 23 7 24 7 4 -9 -18 -14 -18 -15 -2
-16 9 0 17 -5 17 -11 0 -5 -6 -7 -13 -3 -8 5 -8 2 2 -9 16 -20 26 -23 15 -4
-6 9 -3 8 8 -1 10 -8 14 -20 11 -29 -5 -12 -3 -14 8 -8 11 7 11 5 -1 -10 -9
-11 -10 -16 -2 -11 6 4 12 4 13 -1 0 -4 2 -15 4 -23 11 -49 13 -72 8 -66 -9 8
-35 -32 -28 -43 3 -6 14 -8 25 -6 17 3 19 1 10 -16 -6 -10 -13 -19 -16 -19 -3
0 -2 5 1 10 3 6 1 10 -5 10 -7 0 -10 -6 -7 -12 2 -7 12 -12 21 -11 10 0 15 -2
12 -5 -3 -3 0 -12 7 -20 9 -13 9 -14 0 -8 -7 4 -13 3 -13 -1 0 -5 6 -15 13
-22 6 -8 7 -11 1 -8 -6 3 -11 0 -11 -8 0 -8 4 -12 9 -9 4 3 8 1 8 -5 0 -5 -6
-12 -12 -15 -7 -3 -3 -3 8 -1 14 4 24 0 27 -9 4 -11 1 -13 -10 -9 -13 5 -11
-1 7 -27 13 -18 19 -30 12 -26 -8 5 -10 2 -5 -10 5 -13 3 -15 -7 -9 -9 5 -11
4 -6 -4 6 -9 12 -9 24 1 14 11 14 8 -2 -16 -10 -16 -13 -26 -7 -22 10 7 44
-46 36 -58 -3 -3 1 -2 7 4 16 13 28 13 28 -1 0 -5 -5 -7 -11 -3 -7 4 -10 1 -7
-7 3 -8 10 -14 15 -14 6 0 15 -4 20 -9 5 -5 3 -6 -4 -2 -9 5 -13 0 -13 -13 0
-12 5 -21 11 -21 5 0 7 -6 3 -13 -5 -7 0 -6 11 3 11 9 16 10 11 3 -4 -7 -3
-13 2 -13 6 0 8 -9 5 -20 -5 -18 5 -25 30 -21 4 1 3 -8 -4 -20 -9 -17 -8 -20
1 -14 10 6 11 1 7 -21 -3 -16 -4 -23 -1 -16 3 6 10 10 15 7 5 -4 6 2 3 12 -6
15 -4 15 9 -2 10 -13 12 -25 6 -37 -6 -11 -5 -19 3 -24 7 -4 8 -3 4 4 -4 7 -1
12 9 12 10 0 13 -5 9 -12 -5 -8 -2 -9 9 -5 14 5 15 2 7 -19 -7 -17 -7 -23 0
-19 6 3 10 -1 10 -10 0 -9 -4 -13 -10 -10 -6 4 -7 -1 -3 -11 4 -11 8 -13 11
-6 2 7 11 12 20 12 13 0 14 -2 4 -9 -15 -9 -6 -61 10 -61 6 0 8 -11 6 -25 -4
-20 -2 -23 7 -15 9 8 15 8 20 0 3 -5 -1 -13 -9 -16 -21 -8 -10 -25 12 -18 14
5 15 4 2 -5 -13 -10 -13 -12 0 -21 13 -9 13 -10 0 -10 -9 0 -16 -9 -16 -19 0
-11 4 -17 8 -15 4 3 7 -5 5 -18 -1 -17 3 -23 16 -22 15 2 16 -1 5 -13 -10 -12
-9 -17 5 -28 19 -14 23 -30 5 -19 -10 6 -10 5 -1 -8 7 -8 9 -19 5 -24 -4 -4 1
-2 11 5 15 12 17 12 10 -5 -6 -17 -5 -17 10 -5 16 13 17 12 7 -14 -6 -15 -8
-30 -5 -33 3 -3 5 0 5 6 0 7 5 12 10 12 6 0 10 -6 10 -14 0 -8 5 -18 12 -22 7
-5 8 -3 3 6 -5 8 -4 11 3 6 6 -4 9 -13 5 -21 -3 -8 0 -15 6 -15 6 0 11 -6 11
-14 0 -8 6 -17 13 -19 9 -4 8 -8 -3 -16 -12 -9 -11 -11 8 -11 13 0 22 -6 21
-12 -5 -39 30 -97 54 -90 6 2 4 -5 -4 -14 -9 -12 -9 -15 -2 -10 8 4 13 2 13
-7 0 -23 45 -58 66 -51 11 3 15 2 9 -3 -18 -14 -15 -31 6 -36 18 -5 18 -3 7
11 -9 12 -6 12 10 -2 12 -11 22 -28 22 -38 0 -11 5 -16 10 -13 5 3 10 -1 10
-9 0 -9 6 -16 13 -16 8 0 22 -9 32 -20 10 -11 23 -17 29 -13 6 3 8 2 3 -2 -4
-5 0 -19 9 -33 9 -13 11 -21 5 -18 -6 4 -11 1 -11 -8 0 -8 5 -18 12 -22 7 -5
8 -3 3 6 -5 8 -4 11 3 7 5 -4 8 -17 4 -29 -3 -13 -1 -19 5 -15 5 3 10 0 10 -8
0 -8 -4 -12 -8 -9 -11 6 -2 -35 10 -50 7 -8 7 -17 1 -24 -7 -9 -7 -9 2 -2 18
15 32 12 19 -4 -9 -11 -9 -16 0 -22 8 -5 9 -3 4 6 -5 9 -4 11 3 6 9 -5 9 -13
2 -26 -13 -24 -13 -33 1 -24 8 5 8 1 0 -14 -14 -27 -14 -35 2 -26 9 6 9 4 -1
-8 -7 -9 -11 -28 -8 -42 4 -23 -5 -38 -26 -42 -5 -1 -11 -2 -14 -3 -4 0 -2 -7
3 -13 6 -7 13 -22 17 -32 5 -15 4 -16 -7 -8 -10 8 -13 6 -13 -9 0 -10 3 -19 6
-19 3 0 5 -17 5 -39 1 -26 -3 -37 -11 -34 -7 2 -15 -1 -20 -8 -4 -8 -3 -10 4
-5 8 5 12 -1 12 -18 0 -14 -5 -28 -12 -32 -7 -4 -8 -3 -4 4 5 8 1 10 -10 5
-11 -4 -13 -8 -6 -11 7 -2 12 -10 12 -18 0 -10 -5 -12 -12 -8 -10 6 -10 5 -1
-7 13 -16 -4 -49 -26 -49 -9 0 -9 -5 0 -21 6 -12 7 -19 1 -16 -5 4 -18 0 -28
-9 -18 -14 -18 -15 6 -9 l25 5 -23 -12 c-15 -7 -22 -18 -19 -29 3 -12 -7 -27
-30 -44 -27 -22 -32 -29 -22 -41 10 -12 9 -13 -4 -9 -8 4 -18 1 -23 -6 -4 -7
-3 -10 3 -6 5 3 10 0 10 -7 0 -8 -6 -12 -14 -9 -9 3 -11 0 -7 -10 3 -8 0 -18
-7 -23 -8 -5 -10 -3 -4 7 8 12 6 12 -8 0 -10 -8 -15 -16 -13 -18 3 -3 -6 -15
-19 -27 -17 -16 -21 -26 -14 -33 7 -7 3 -10 -14 -8 -17 2 -24 -2 -23 -14 0 -9
-4 -15 -11 -14 -7 2 -10 -4 -7 -12 4 -9 -2 -18 -17 -24 -13 -5 -18 -10 -10
-10 11 -1 10 -6 -4 -21 -14 -16 -21 -17 -32 -8 -10 8 -13 8 -11 0 2 -6 -8 -22
-22 -34 -14 -13 -19 -18 -10 -13 13 9 13 8 2 -7 -8 -10 -19 -16 -25 -15 -7 1
-11 -4 -9 -12 3 -12 1 -12 -14 0 -10 8 -15 9 -11 2 5 -7 -1 -17 -13 -23 -11
-6 -18 -15 -15 -20 3 -6 -1 -7 -9 -4 -9 3 -16 1 -16 -5 0 -6 -7 -11 -16 -11
-8 0 -13 -4 -10 -9 3 -5 -8 -11 -25 -15 -20 -4 -28 -10 -23 -18 5 -8 2 -9 -9
-5 -11 4 -17 1 -17 -8 0 -7 -5 -17 -12 -21 -7 -4 -8 -3 -4 4 5 8 2 10 -8 6 -9
-3 -16 -14 -16 -23 0 -14 -2 -14 -10 -1 -6 10 -10 11 -10 3 0 -7 -7 -13 -15
-13 -8 0 -15 -8 -16 -17 0 -15 -2 -15 -9 2 -5 11 -9 14 -9 8 -1 -7 -12 -15
-26 -19 -14 -3 -22 -10 -19 -15 3 -6 -6 -8 -21 -5 -21 4 -26 2 -21 -11 5 -11
1 -14 -13 -10 -14 3 -18 1 -14 -9 4 -12 432 -14 2768 -14 1810 0 2766 3 2770
10 3 6 -1 7 -10 4 -11 -4 -14 -2 -9 9 3 8 0 18 -7 23 -8 4 -10 3 -5 -4 11 -19
-15 -14 -31 6 -8 9 -12 11 -8 5 4 -9 1 -11 -9 -7 -9 3 -13 11 -9 17 4 6 0 8
-11 4 -10 -4 -19 -1 -22 8 -4 8 -12 15 -19 15 -7 0 -15 9 -18 20 -3 11 -11 20
-19 20 -10 0 -9 -3 2 -11 13 -9 13 -10 0 -6 -8 2 -14 12 -14 21 2 13 -1 14
-13 5 -8 -7 -13 -8 -12 -3 1 5 1 16 0 24 -1 13 -2 13 -11 0 -6 -10 -10 -11
-10 -2 0 6 -6 12 -14 12 -8 0 -17 7 -20 16 -4 10 -12 14 -22 10 -14 -5 -15 -4
-4 9 11 13 10 14 -5 9 -14 -6 -16 -4 -10 7 7 11 5 11 -10 -1 -10 -8 -16 -10
-12 -4 4 6 -2 19 -13 29 -11 10 -20 15 -20 10 0 -4 -8 -1 -17 6 -15 12 -16 12
-8 -1 7 -12 5 -12 -11 1 -10 9 -25 14 -31 12 -7 -3 -13 0 -13 6 0 6 -5 11 -11
11 -5 0 -7 -5 -3 -11 5 -8 1 -8 -14 0 -11 6 -22 16 -24 22 -2 6 -16 12 -31 12
-15 0 -27 5 -27 11 0 14 -36 46 -53 46 -9 0 -8 3 1 9 11 6 10 10 -5 16 -10 5
-22 7 -26 6 -5 -1 -6 3 -2 9 3 6 12 7 18 3 7 -4 6 0 -2 10 -7 9 -18 14 -24 10
-5 -3 -7 -1 -3 5 3 6 -2 18 -11 28 -17 17 -17 17 -1 11 10 -3 20 -2 23 4 4 5
2 8 -4 7 -13 -4 -71 34 -71 46 0 5 8 2 18 -7 10 -10 23 -17 28 -17 5 0 1 5 -9
11 -9 6 -14 15 -11 21 4 6 2 8 -4 4 -6 -3 -13 -2 -17 4 -4 6 -12 7 -18 3 -8
-4 -7 -1 1 9 12 14 10 16 -10 10 -21 -5 -22 -4 -8 13 12 15 12 17 1 10 -11 -6
-13 -4 -8 8 3 9 1 19 -5 23 -7 4 -8 3 -4 -4 4 -7 2 -12 -3 -12 -6 0 -11 5 -11
11 0 5 -4 7 -10 4 -6 -3 -7 1 -4 9 3 9 1 16 -5 16 -6 0 -17 16 -26 36 -10 24
-19 33 -27 28 -8 -5 -7 -1 2 11 8 10 11 16 5 14 -5 -3 -18 2 -27 13 -10 10
-15 18 -12 18 3 0 -4 9 -17 20 -13 10 -20 19 -15 20 5 0 -3 9 -18 21 -19 15
-25 27 -21 40 4 11 3 19 -2 18 -19 -3 -33 2 -33 12 0 6 7 8 17 5 11 -5 9 1 -7
17 -14 13 -28 22 -32 20 -4 -2 -5 6 -3 18 2 12 2 19 -1 16 -8 -7 -36 22 -53
55 -8 15 -18 25 -23 22 -12 -8 -10 10 5 25 10 12 9 13 -7 7 -12 -4 -23 -2 -27
6 -5 7 -12 13 -16 13 -4 1 -19 7 -32 14 -14 8 -21 9 -17 2 4 -6 2 -11 -3 -11
-6 0 -11 5 -11 10 0 6 -9 10 -20 10 -11 0 -20 5 -20 10 0 6 -5 10 -11 10 -5 0
-7 -6 -3 -12 4 -7 -2 -4 -14 6 -12 11 -20 21 -17 24 2 3 -2 14 -10 24 -7 11
-11 27 -8 35 3 8 0 19 -8 24 -11 7 -11 9 -1 9 7 0 10 5 7 10 -4 6 -11 8 -16 5
-5 -4 -9 -1 -9 4 0 6 5 11 10 11 15 0 12 16 -6 34 -8 9 -19 30 -24 47 -8 28
-8 30 8 18 13 -11 13 -9 -2 8 -10 12 -16 29 -13 38 4 8 2 15 -3 15 -5 0 -6 7
-3 17 5 12 3 14 -8 8 -12 -7 -12 -6 -1 7 9 11 10 18 2 23 -6 3 -7 11 -4 17 4
7 2 8 -5 4 -9 -6 -9 -12 1 -24 11 -15 11 -15 -2 -5 -11 8 -16 28 -15 62 1 40
-2 48 -12 39 -11 -8 -12 -7 -7 7 5 13 4 16 -5 10 -10 -6 -11 -3 -2 13 11 22 0
39 -18 27 -5 -3 -13 0 -17 6 -4 7 -3 9 3 6 15 -9 24 18 11 31 -6 6 -18 8 -27
5 -13 -4 -13 -3 -2 5 8 6 21 8 30 5 9 -2 5 3 -9 11 -14 8 -22 15 -17 16 4 0 0
15 -10 33 -9 17 -17 39 -17 47 -1 8 -7 14 -14 12 -8 -1 -11 2 -7 8 3 6 10 8
15 5 5 -3 12 0 16 7 4 7 4 10 0 6 -10 -8 -36 14 -29 25 7 12 -8 47 -21 47 -7
0 -13 7 -13 15 0 8 4 12 9 9 4 -3 8 0 8 5 0 6 -7 11 -15 11 -9 0 -12 6 -8 17
5 12 3 14 -8 8 -11 -7 -11 -5 1 10 12 15 12 17 1 10 -11 -6 -13 -4 -8 9 4 10
3 15 -3 11 -6 -3 -10 1 -10 10 0 9 -3 14 -8 11 -4 -2 -7 13 -7 34 0 28 -3 36
-11 29 -7 -6 -15 4 -24 31 -7 22 -18 40 -24 40 -6 0 -4 5 4 10 12 8 12 10 1
10 -9 0 -11 7 -8 21 4 15 2 18 -7 10 -7 -6 -17 -6 -26 -1 -10 7 -11 10 -2 10
19 0 15 40 -5 41 -15 0 -15 2 2 9 11 5 14 9 7 9 -7 1 -10 6 -6 12 5 8 1 8 -13
0 -18 -9 -20 -7 -15 16 3 15 1 24 -5 20 -5 -4 -10 7 -10 24 0 19 3 25 9 17 5
-9 8 -6 8 9 0 13 10 27 23 34 18 9 20 9 10 -2 -7 -7 -13 -18 -13 -23 0 -6 7 0
16 12 10 14 22 21 31 18 11 -5 13 -2 9 9 -3 9 -2 14 3 11 12 -8 82 14 76 24
-3 4 4 6 15 3 11 -3 20 0 20 6 0 6 11 11 25 11 14 0 25 5 25 10 0 6 9 10 21
10 11 0 18 4 15 9 -4 5 3 7 14 4 11 -3 20 0 20 6 0 6 8 11 19 11 21 0 44 23
34 34 -4 4 0 4 10 0 9 -3 17 -11 17 -17 0 -6 3 -7 6 -4 4 4 1 15 -7 24 -7 10
-9 15 -5 11 5 -4 16 -2 24 5 13 10 15 9 8 -3 -4 -9 -2 -8 7 2 8 10 17 15 20
11 4 -3 7 -1 7 6 0 7 6 11 14 8 8 -3 13 1 12 11 -1 10 11 19 37 25 21 5 37 15
37 23 0 8 5 15 10 15 6 1 16 2 23 3 6 1 10 10 9 21 -2 11 -1 17 4 13 6 -7 39
28 39 43 0 3 14 18 30 34 17 15 23 23 15 17 -12 -9 -16 -7 -16 7 0 10 5 17 11
15 6 -3 12 8 13 23 1 15 8 30 15 35 6 4 8 8 2 8 -5 0 -3 5 5 10 10 6 11 10 3
10 -7 0 -13 5 -13 11 0 5 4 8 9 5 17 -11 19 13 10 142 -3 33 -7 41 -19 37 -9
-3 -8 1 4 10 11 8 14 15 8 15 -7 0 -12 5 -12 11 0 5 5 7 10 4 6 -3 10 -1 10 4
0 6 -4 11 -8 11 -4 0 -8 9 -8 21 0 18 2 19 12 4 10 -14 12 -13 10 9 0 13 -4
22 -8 20 -3 -2 -1 7 5 21 7 14 16 25 21 25 5 0 2 8 -5 17 -10 11 -10 14 -1 9
7 -4 12 -2 12 4 0 6 4 8 10 5 6 -3 7 1 4 9 -3 9 -11 13 -17 9 -6 -3 -7 -1 -3
6 4 6 12 8 18 5 7 -5 9 4 6 25 -3 23 -1 31 8 27 8 -3 16 0 20 6 4 6 3 8 -3 5
-6 -4 -13 2 -16 13 -3 11 0 23 5 27 7 3 8 1 4 -5 -4 -7 -3 -12 2 -12 5 0 12 9
15 19 4 15 1 18 -12 14 -14 -6 -14 -5 1 13 19 22 21 34 5 52 -12 15 -18 84 -6
77 4 -3 6 -16 3 -30 -2 -13 -1 -26 4 -28 15 -10 7 98 -8 111 -13 11 -13 11 1
7 13 -5 16 4 15 64 -1 38 3 67 8 64 5 -3 7 8 4 26 -3 22 -1 30 7 27 12 -4 13
-2 17 49 2 17 8 29 15 28 7 -2 10 4 7 12 -4 8 -11 12 -17 8 -6 -3 -7 -1 -3 6
4 6 11 9 15 6 5 -2 13 7 19 21 11 22 9 26 -11 34 -12 5 -17 9 -10 9 7 1 10 13
7 34 -4 23 -2 28 5 17 8 -12 10 -10 8 8 -1 17 -6 21 -22 17 -11 -3 -15 -2 -8
1 7 3 9 13 6 22 -4 13 -3 14 5 4 7 -11 10 -11 15 2 4 9 2 16 -3 16 -6 0 -10 4
-10 10 0 5 7 7 15 4 9 -4 15 0 15 10 0 10 -5 13 -17 9 -10 -4 -3 6 15 21 17
15 32 34 32 43 0 8 7 21 15 30 8 8 12 20 8 26 -4 7 1 6 10 -2 15 -12 17 -12
12 0 -5 14 35 39 63 39 9 0 12 6 8 16 -5 13 -4 14 7 6 17 -15 38 4 30 26 -5
11 -3 13 8 7 12 -8 12 -6 0 8 -12 15 -12 17 3 11 15 -6 21 5 17 30 -1 5 5 6
14 2 10 -3 14 -2 10 5 -4 6 -14 8 -23 4 -9 -3 -13 -3 -9 1 4 4 2 14 -5 21 -9
11 -9 16 3 23 11 8 11 12 -6 25 -20 16 -19 16 3 5 25 -12 27 -21 11 -37 -8 -8
-8 -13 0 -17 6 -4 11 -6 12 -4 7 31 4 47 -14 67 -12 13 -16 21 -9 17 17 -10
15 2 -4 21 -13 13 -13 17 -2 24 10 6 8 9 -7 10 -17 0 -18 1 -3 7 12 5 15 11 9
21 -5 8 -7 21 -3 29 3 10 1 13 -6 8 -7 -4 -12 -3 -12 3 0 5 6 12 13 15 6 4 2
4 -11 2 -20 -4 -21 -2 -10 12 7 9 9 13 3 10 -5 -3 -17 1 -25 10 -13 14 -13 15
0 10 11 -4 15 1 15 17 0 13 -4 21 -9 17 -5 -3 -7 2 -3 11 3 10 2 17 -4 17 -6
0 -7 5 -3 12 4 7 3 8 -4 4 -6 -4 -9 -13 -5 -21 3 -8 1 -15 -4 -15 -6 0 -9 18
-9 40 1 22 -2 40 -6 40 -5 0 -8 5 -8 11 0 5 4 7 10 4 6 -3 7 1 4 9 -8 20 -14
20 -31 -1 -13 -16 -13 -16 -4 4 16 31 14 37 -6 22 -15 -11 -14 -10 1 9 13 15
15 22 6 22 -7 0 -10 3 -7 6 3 4 2 16 -4 27 -7 12 -7 17 -1 13 7 -4 9 9 7 34
-2 29 1 40 11 40 16 0 33 30 27 47 -3 7 5 10 21 9 14 -2 24 0 23 3 -3 12 24
51 32 46 5 -2 8 3 7 13 0 9 4 16 11 15 6 -1 17 5 25 14 8 10 8 14 1 10 -6 -4
-15 -3 -18 3 -4 6 -3 10 2 9 22 -4 34 2 27 14 -5 8 -2 7 9 -2 15 -12 17 -12
11 4 -6 14 -4 16 7 10 11 -7 12 -6 2 6 -8 10 -9 19 -1 29 8 12 9 12 4 -2 -8
-25 6 -22 22 3 8 12 9 18 3 15 -7 -4 -8 -1 -5 8 3 9 10 13 15 10 5 -3 6 2 3
10 -3 9 -11 13 -17 9 -6 -3 -7 -1 -3 5 5 9 13 9 27 1 20 -10 20 -9 5 14 -14
20 -14 24 -1 24 8 0 11 -5 8 -11 -3 -6 0 -5 8 3 11 10 11 15 2 18 -10 3 -10 9
0 24 9 15 9 23 -2 40 -12 20 -11 21 5 15 10 -4 15 -4 11 0 -4 4 -1 14 6 22 8
10 8 13 1 9 -7 -4 -15 0 -18 9 -4 11 -2 15 7 11 8 -3 14 1 14 9 0 8 -6 13 -14
10 -7 -3 -13 -1 -13 4 0 6 7 10 15 10 18 0 19 12 4 27 -8 8 -7 13 2 18 8 6 10
4 4 -5 -5 -9 -4 -11 4 -6 7 4 10 13 8 19 -2 7 0 22 4 35 5 14 5 21 0 18 -5 -4
-7 3 -4 14 3 11 10 20 15 20 6 0 4 8 -3 17 -10 11 -10 14 -1 9 7 -4 12 -1 12
9 0 9 5 13 11 10 6 -4 13 2 16 14 3 12 10 21 15 21 5 0 6 6 2 13 -6 9 -4 9 8
-1 13 -10 18 -10 24 -1 4 8 3 9 -4 5 -7 -4 -12 -3 -12 3 0 10 39 27 53 23 5
-1 6 2 2 8 -3 5 0 10 7 10 9 0 9 3 -2 10 -20 13 -4 13 20 0 15 -8 17 -6 13 13
-3 16 -2 18 5 9 7 -11 10 -11 16 3 3 9 11 13 18 9 8 -5 9 -2 5 9 -8 20 4 22
22 5 10 -11 11 -9 5 6 -5 13 -4 17 4 12 7 -4 12 -2 12 4 0 6 5 8 12 4 7 -4 8
-3 4 4 -3 6 3 16 14 22 11 6 20 17 20 25 0 7 5 17 12 21 7 5 8 2 3 -7 -5 -8
-4 -10 0 -6 13 11 15 38 3 31 -6 -4 -8 -3 -5 3 12 20 16 64 5 57 -7 -5 -9 -1
-5 9 3 10 2 17 -2 17 -5 0 -12 -6 -14 -12 -4 -9 -6 -10 -6 -1 -1 6 6 18 14 26
13 13 13 16 -1 21 -8 3 -12 2 -9 -3 3 -5 1 -12 -4 -15 -4 -3 -8 12 -7 33 1 25
-2 37 -9 34 -18 -6 -39 23 -24 33 7 4 9 3 5 -4 -3 -6 -2 -13 3 -16 18 -11 5
24 -15 40 -10 8 -14 13 -8 10 7 -3 11 5 10 23 -1 16 -4 27 -7 25 -4 -2 -15 6
-25 19 -16 18 -16 19 -1 8 21 -17 22 -8 1 13 -8 9 -11 16 -5 16 6 0 11 5 11
11 0 5 -4 7 -10 4 -5 -3 -10 -2 -10 4 0 5 5 11 11 13 9 3 8 11 -1 28 -12 23
-12 24 4 11 14 -12 16 -12 10 2 -3 8 -12 18 -21 21 -13 5 -13 9 -2 23 12 14
12 16 -1 8 -13 -8 -13 -7 -1 8 12 15 11 17 -3 17 -9 0 -16 4 -16 10 0 5 6 7
13 4 10 -3 13 4 12 28 -1 18 -8 33 -16 36 -11 3 -11 1 1 -7 9 -7 10 -11 3 -11
-17 0 -25 17 -12 25 11 8 -30 42 -45 37 -11 -4 -36 30 -29 41 2 4 -1 6 -9 5
-10 -2 -13 15 -13 72 0 41 -4 81 -9 89 -6 9 -5 12 1 8 6 -4 16 0 23 8 11 13
10 14 -6 8 -16 -6 -17 -5 -4 9 8 9 18 14 23 11 4 -2 7 4 7 13 0 10 3 14 7 11
3 -4 11 0 17 9 6 8 20 17 31 18 13 2 19 10 17 21 -2 11 1 14 9 9 8 -5 11 -2 6
8 -3 9 0 21 6 27 6 6 7 11 3 11 -5 0 -3 6 3 14 9 11 9 16 0 22 -8 5 -10 3 -4
-7 5 -8 4 -10 0 -6 -13 11 -15 38 -3 31 7 -4 7 0 0 12 -7 15 -9 89 -2 89 1 0
3 8 5 18 2 9 0 15 -4 13 -4 -3 -7 4 -7 14 0 10 4 16 8 14 4 -3 8 -1 8 5 0 5
-5 13 -10 16 -6 4 -8 11 -5 16 4 5 0 9 -7 9 -9 0 -9 3 2 10 12 8 12 10 -5 11
l-20 0 20 9 20 9 -20 1 -20 1 20 9 c18 8 18 9 2 9 -14 1 -17 6 -12 22 5 15 4
19 -4 15 -6 -4 -11 0 -11 9 0 9 4 13 10 10 6 -3 7 1 4 9 -3 9 -11 16 -16 16
-6 0 -8 8 -6 18 5 17 -8 37 -25 39 -5 1 -12 5 -15 9 -4 4 -1 4 7 -1 9 -5 12
-3 9 6 -3 8 -11 13 -18 11 -7 -2 -10 3 -7 12 4 9 -2 21 -15 30 -13 9 -17 19
-12 28 6 10 3 9 -10 -1 -9 -8 -16 -9 -14 -3 2 6 -6 18 -17 27 -11 9 -13 13 -5
9 13 -7 13 -6 0 12 -20 25 -32 34 -42 28 -4 -3 -5 2 -2 10 4 9 -1 18 -10 22
-9 3 -13 10 -10 15 3 5 10 6 16 3 7 -4 8 -2 4 4 -5 9 -13 9 -26 2 -28 -15 -37
-12 -14 5 19 14 19 14 -1 15 -17 0 -17 2 -5 10 13 9 13 10 0 10 -13 0 -13 1 0
10 10 6 11 10 3 10 -7 0 -13 7 -13 16 0 8 5 12 10 9 6 -3 10 -2 10 4 0 5 -5
11 -11 13 -9 3 -9 10 1 27 9 18 9 22 0 16 -8 -5 -11 -3 -8 6 3 8 -2 23 -11 34
-9 12 -10 15 -1 8 21 -19 32 -16 21 5 -7 13 -6 23 2 32 9 10 9 11 0 6 -12 -7
-19 24 -14 59 1 6 -5 2 -13 -8 -12 -16 -14 -16 -20 -2 -3 9 -2 13 4 10 6 -4 9
3 7 16 -2 13 -12 26 -23 31 -16 7 -16 8 4 4 12 -2 22 0 22 5 0 5 -4 9 -10 9
-5 0 -10 5 -10 11 0 5 6 7 13 3 8 -5 8 -3 -2 9 -7 9 -17 15 -21 12 -4 -2 -18
7 -30 20 -13 14 -31 25 -40 25 -9 0 -22 6 -29 13 -11 10 -13 9 -8 -6 6 -15 4
-16 -16 -5 -27 14 -87 17 -105 4 -22 -16 -95 -14 -116 3 -18 15 -19 15 -13 -4
6 -18 6 -18 -5 -4 -9 11 -20 14 -33 9 -11 -4 -26 -3 -32 2 -7 6 -13 7 -13 4 0
-4 -9 -2 -19 4 -14 7 -21 6 -24 -3 -3 -6 -6 -3 -6 8 -1 17 -3 17 -11 5 -8 -12
-10 -10 -10 10 0 20 -2 22 -10 10 -6 -10 -10 -11 -10 -2 0 6 -8 12 -17 12 -14
0 -15 2 -5 9 10 6 9 10 -7 14 -12 3 -19 1 -16 -3 3 -5 1 -12 -5 -15 -6 -4 -10
-3 -9 2 1 4 1 17 0 27 -1 20 -1 20 -17 0 -8 -10 -12 -13 -8 -5 5 11 0 13 -24
9 -17 -2 -34 0 -36 6 -3 7 -5 7 -5 -1z m-411 -173 c0 -5 -2 -10 -4 -10 -3 0
-8 5 -11 10 -3 6 -1 10 4 10 6 0 11 -4 11 -10z m-2965 -480 c-3 -5 -11 -10
-16 -10 -6 0 -7 5 -4 10 3 6 11 10 16 10 6 0 7 -4 4 -10z m-105 -110 c0 -5 -5
-10 -11 -10 -5 0 -7 5 -4 10 3 6 8 10 11 10 2 0 4 -4 4 -10z m-371 -273 c-2
-1 -13 -9 -24 -17 -19 -14 -19 -14 -6 3 7 9 18 17 24 17 6 0 8 -1 6 -3z m4716
-487 c3 -6 -1 -7 -9 -4 -18 7 -21 14 -7 14 6 0 13 -4 16 -10z m13 -43 c17 -18
19 -24 8 -24 -8 0 -13 4 -10 9 3 4 -2 11 -10 14 -9 3 -16 10 -16 15 0 13 4 11
28 -14z m71 -50 c8 -10 7 -14 -2 -14 -8 0 -14 6 -14 14 0 7 1 13 2 13 2 0 8
-6 14 -13z m35 -66 c4 -5 -3 -7 -14 -4 -23 6 -26 13 -6 13 8 0 17 -4 20 -9z
m-5412 -494 c-7 -8 -8 -18 -4 -22 4 -5 1 -5 -6 -1 -9 5 -9 12 -1 27 6 12 13
18 16 15 3 -3 1 -12 -5 -19z m-227 -597 c3 -5 1 -10 -4 -10 -6 0 -11 5 -11 10
0 6 2 10 4 10 3 0 8 -4 11 -10z m-47 -295 c-3 -3 -9 2 -12 12 -6 14 -5 15 5 6
7 -7 10 -15 7 -18z m5253 -18 c-10 -9 -11 -8 -5 6 3 10 9 15 12 12 3 -3 0 -11
-7 -18z m-5248 -63 c-2 -7 -12 -15 -21 -19 -14 -5 -14 -4 0 12 8 10 13 25 11
33 -4 13 -3 13 5 1 6 -8 8 -20 5 -27z m27 -158 c0 -3 -4 -8 -10 -11 -5 -3 -10
-1 -10 4 0 6 5 11 10 11 6 0 10 -2 10 -4z m10 -222 c0 -8 -19 -13 -24 -6 -3 5
1 9 9 9 8 0 15 -2 15 -3z m5235 -313 c3 -5 2 -12 -3 -15 -5 -3 -9 1 -9 9 0 17
3 19 12 6z m-161 -146 c-4 -8 -11 -12 -17 -8 -8 5 -7 8 1 11 7 2 9 9 6 14 -4
7 -2 8 4 4 6 -4 9 -13 6 -21z m-30 -240 c-4 -8 -11 -12 -16 -9 -6 4 -5 10 3
15 19 12 19 11 13 -6z m-4665 -58 c-2 -1 -13 -9 -24 -17 -19 -14 -19 -14 -6 3
7 9 18 17 24 17 6 0 8 -1 6 -3z m4621 -51 c-7 -7 -13 -7 -20 0 -6 6 -3 10 10
10 13 0 16 -4 10 -10z m-35 -364 c-3 -3 -11 0 -18 7 -9 10 -8 11 6 5 10 -3 15
-9 12 -12z m-78 -487 c0 -8 -4 -12 -9 -9 -5 3 -6 10 -3 15 9 13 12 11 12 -6z
m-4517 -96 c0 -5 -4 -7 -10 -4 -5 3 -10 1 -10 -6 0 -7 -3 -10 -6 -6 -8 7 4 27
17 27 5 0 9 -5 9 -11z m77 -284 c0 -8 -4 -12 -9 -9 -5 3 -6 10 -3 15 9 13 12
11 12 -6z m238 -405 c3 -5 1 -10 -4 -10 -6 0 -11 5 -11 10 0 6 2 10 4 10 3 0
8 -4 11 -10z m3685 -360 c0 -5 -2 -10 -4 -10 -3 0 -8 5 -11 10 -3 6 -1 10 4
10 6 0 11 -4 11 -10z m-3456 -166 c3 -8 2 -12 -4 -9 -6 3 -10 10 -10 16 0 14
7 11 14 -7z m67 -77 c-6 -8 -7 -18 -3 -22 4 -5 1 -5 -6 -1 -10 6 -10 11 -1 22
6 8 14 14 16 14 3 0 0 -6 -6 -13z m237 -362 c-3 -3 -9 2 -12 12 -6 14 -5 15 5
6 7 -7 10 -15 7 -18z m7 -253 c-3 -3 -11 0 -18 7 -9 10 -8 11 6 5 10 -3 15 -9
12 -12z m-161 -437 c-4 -8 -11 -15 -16 -15 -6 0 -5 6 2 15 7 8 14 15 16 15 2
0 1 -7 -2 -15z m4470 -363 c3 -5 -1 -9 -9 -9 -8 0 -12 4 -9 9 3 4 7 8 9 8 2 0
6 -4 9 -8z"/>
<path d="M6480 8220 c-9 -6 -10 -10 -3 -10 6 0 15 5 18 10 8 12 4 12 -15 0z"/>
<path d="M6775 8190 c3 -5 8 -10 11 -10 2 0 4 5 4 10 0 6 -5 10 -11 10 -5 0
-7 -4 -4 -10z"/>
<path d="M1875 6860 c3 -5 8 -10 11 -10 2 0 4 5 4 10 0 6 -5 10 -11 10 -5 0
-7 -4 -4 -10z"/>
<path d="M1690 6440 c-9 -6 -10 -10 -3 -10 6 0 15 5 18 10 8 12 4 12 -15 0z"/>
<path d="M1640 6100 c-9 -6 -10 -10 -3 -10 6 0 15 5 18 10 8 12 4 12 -15 0z"/>
<path d="M1495 5770 c-3 -5 -2 -10 4 -10 5 0 13 5 16 10 3 6 2 10 -4 10 -5 0
-13 -4 -16 -10z"/>
<path d="M1465 5700 c-3 -5 -1 -10 4 -10 6 0 11 5 11 10 0 6 -2 10 -4 10 -3 0
-8 -4 -11 -10z"/>
<path d="M1456 5654 c-5 -14 -4 -15 9 -4 17 14 19 20 6 20 -5 0 -12 -7 -15
-16z"/>
<path d="M1399 5448 c-6 -21 -5 -38 2 -38 5 0 9 2 9 4 0 2 3 11 6 20 3 9 1 16
-5 16 -6 0 -11 -1 -12 -2z"/>
<path d="M1450 4699 c0 -5 5 -7 10 -4 6 3 10 8 10 11 0 2 -4 4 -10 4 -5 0 -10
-5 -10 -11z"/>
<path d="M1650 4396 c0 -2 7 -7 16 -10 8 -3 12 -2 9 4 -6 10 -25 14 -25 6z"/>
<path d="M6505 4141 c-3 -5 -2 -12 3 -15 5 -3 9 1 9 9 0 17 -3 19 -12 6z"/>
<path d="M1797 3095 c-6 -15 10 -32 20 -21 4 3 1 6 -5 6 -6 0 -9 7 -6 15 4 8
4 15 1 15 -3 0 -7 -7 -10 -15z"/>
<path d="M6280 2880 c-8 -5 -10 -10 -5 -10 6 0 17 5 25 10 8 5 11 10 5 10 -5
0 -17 -5 -25 -10z"/>
<path d="M6255 2840 c-3 -6 1 -7 9 -4 18 7 21 14 7 14 -6 0 -13 -4 -16 -10z"/>
<path d="M5865 1880 c3 -5 8 -10 11 -10 2 0 4 5 4 10 0 6 -5 10 -11 10 -5 0
-7 -4 -4 -10z"/>
<path d="M2570 1566 c0 -2 8 -10 18 -17 15 -13 16 -12 3 4 -13 16 -21 21 -21
13z"/>
<path d="M2598 1523 c7 -3 16 -2 19 1 4 3 -2 6 -13 5 -11 0 -14 -3 -6 -6z"/>
<path d="M6010 1441 c0 -5 5 -13 10 -16 6 -3 10 -2 10 4 0 5 -4 13 -10 16 -5
3 -10 2 -10 -4z"/>
<path d="M6056 1285 c4 -8 11 -15 16 -15 6 0 5 6 -2 15 -7 8 -14 15 -16 15 -2
0 -1 -7 2 -15z"/>
<path d="M6075 1240 c3 -5 8 -10 11 -10 2 0 4 5 4 10 0 6 -5 10 -11 10 -5 0
-7 -4 -4 -10z"/>
<path d="M6292 1110 c7 -10 14 -18 15 -16 6 6 -9 36 -18 36 -5 0 -4 -9 3 -20z"/>
<path d="M6545 759 c-4 -6 -5 -12 -2 -15 2 -3 7 2 10 11 7 17 1 20 -8 4z"/>
<path d="M2526 728 c3 -5 10 -6 15 -3 13 9 11 12 -6 12 -8 0 -12 -4 -9 -9z"/>
<path d="M2290 419 c0 -5 5 -7 10 -4 6 3 10 8 10 11 0 2 -4 4 -10 4 -5 0 -10
-5 -10 -11z"/>
</g>
</svg>
